<?xml version="1.0" encoding="utf-8"?>
<!-- Generator: Adobe Illustrator 15.1.0, SVG Export Plug-In . SVG Version: 6.00 Build 0)  -->
<!DOCTYPE svg PUBLIC "-//W3C//DTD SVG 1.1//EN" "http://www.w3.org/Graphics/SVG/1.1/DTD/svg11.dtd">
<svg version="1.1" id="Layer_1" xmlns="http://www.w3.org/2000/svg" xmlns:xlink="http://www.w3.org/1999/xlink" x="0px" y="0px"
	 width="81.6px" height="26.1px" viewBox="0 0 81.6 26.1" enable-background="new 0 0 81.6 26.1" xml:space="preserve">
<path fill="#50C0A7" d="M43.8,9.8c0.4-0.1,0.7-0.2,0.9-0.2c1.6-0.398,3.3-0.7,5-0.8c0.6,0,1.1-0.2,1.698-0.1
	c0.7,0.1,1.5,0.1,2.2,0.198C54.3,9.1,55,9.2,55.7,9.5c0.698,0.3,1.398,0.5,2,0.8c1.5,0.7,3,1.6,4.3,2.8c0.6,0.602,1.3,1.3,1.8,2
	c0.4,0.5,0.8,1.102,0.9,1.9c0.3,0.3,0.1,0.7,0.398,1c0.2,0.2,0.3,0.7,0.3,1c0.102,0.8,0.302,1.7,0.302,2.5c0,1-0.2,1.898-1.2,2.5
	c-0.8,0.5-1.5,1-2.3,1.5c-0.2,0.1-0.4,0.2-0.602,0.3c-1.6,0.5-3.2,0.5-4.8-0.1c-0.2-0.102-0.5-0.2-0.7-0.2C53.6,25,51.3,24,49,22.9
	C48.2,22.5,47.4,22,46.6,21.6c-0.8-0.5-1.6-1.1-2.5-1.7c-0.1,0-0.1-0.1-0.2-0.1C42.5,19.2,41.8,18,41,16.9
	c-0.602-0.8-1.2-1.5-1.4-2.5c0-0.1-0.1-0.1-0.2-0.198C38.5,14.5,37.8,15,37,15.4c-1.9,1-3.8,2.102-5.7,3.102
	c-0.5,0.2-0.9,0.6-1.3,0.898C28.8,20.2,27.6,21,26.3,21.7c-1,0.6-1.9,1.1-2.9,1.6C22.7,23.7,22,23.9,21.2,24.1
	c-2,0.602-4,1.2-6.102,1.5c-1.8,0.3-3.6,0-5.398-0.398C9,25,8.3,24.6,7.5,24.4C6.8,24,6,23.5,5.2,23.4C4.9,23.4,4.7,23.1,4.4,23
	c-1.3-0.9-2.3-2-2.898-3.5c-0.5-1.4-0.9-2.8-1.3-4.2c-0.4-1.5,0-2.9,0.898-4.1C2,10.1,2.8,9,3.8,8.1C4.2,7.7,4.7,7.3,5.2,7
	S6.3,6.5,6.9,6.4C8.5,6.4,10,6.5,11.5,7c1.3,0.5,2.3,1.398,2.8,2.7c0.4,0.898,0.2,1.8-0.1,2.6c-0.102,0.4-0.4,0.7-0.602,1
	c-1.2,1.6-2.7,2.9-4.2,4.1C9.2,17.6,9,17.6,8.7,17.8C8.4,17.7,8.1,17.5,7.8,17.4C8,16.7,8.5,16.3,9,15.8
	C9.4,15.3,9.9,14.9,10.4,14.4c0.102-1-0.5-1.898-1.3-2.6C8.7,11.5,8.3,11.2,7.8,11C6.7,10.7,5.7,10.4,4.5,10.4
	c-0.4,0-0.7,0.102-1.102,0.2C3.1,11.2,3,11.8,3.1,12.4C3.2,14.5,3.8,16.5,4.7,18.3c0.698,1.3,1.8,2.3,3.1,2.9c1.2,0.5,2.5,1,3.8,1.3
	c0.602,0.1,1.2,0.3,1.8,0.3c1.2,0,2.4-0.1,3.5-0.2c0.602,0,1.102-0.1,1.602-0.2c2-0.398,3.898-1,5.898-1.698
	C25.7,20.2,27,19.6,28.1,18.8c1.3-0.9,2.602-1.8,4-2.7c1.602-1,3.2-1.898,4.8-2.8c0.602-0.4,1.302-0.7,1.9-1.1
	C39,12.1,39.2,11.9,39.2,11.6c0-0.2,0.1-0.398,0.1-0.7c0-1.3,0.6-2.3,1.5-3.198C41.4,7,42,6.4,42.7,5.8C44.2,4.5,45.6,3.3,47.4,2.5
	c2-1,4.102-1.9,6.4-2.3c1.9-0.302,3.7-0.302,5.6,0C61.1,0.5,62.8,0.9,64.5,1.4C65.6,1.8,66.6,2.2,67.7,2.7
	c1.1,0.5,2.1,1.1,3.1,1.698c0.6,0.4,1.4,0.802,2,1.2c0.1,0.102,0.3,0.2,0.5,0.2c0.5,0,0.8,0.4,1.2,0.6C75,6.6,75.3,7.2,75.8,7.3
	c0.5,0.2,1,0.6,1.5,1c0.5,0.3,0.9,0.6,1.3,1c0.5,0.4,1,0.8,1.5,1.2c0.8,0.7,1.3,1.6,1.602,2.7C80.9,14.1,80,14.8,78.7,15.1
	C78.4,15.2,78,15.2,77.8,15.5c-0.4-0.4-0.7-0.8-1-1.2c-0.4-0.7-0.9-1.1-1.6-1.6C74.3,12.1,73.4,11.6,72.5,11c-2.9-2-6-3.7-9.102-5.3
	c-0.5-0.2-0.898-0.4-1.5-0.5C61.5,5.2,61.2,5,60.8,4.9c-2-0.8-4.1-1.198-6.3-1.398c-1.9-0.2-3.8,0.1-5.602,0.6
	c-1.6,0.5-3.1,1.102-4.5,1.8C43.9,6.2,43.6,6.5,43.6,7.1C43.6,8,43.5,8.8,43.8,9.8z M44.7,12.7C45.4,14,46.2,15,47.2,16
	c0.5,0.5,1.1,0.8,1.5,1.3c1.3,1.3,2.898,2.2,4.5,3c2.198,1.1,4.6,2.1,7,2.7c0.5,0.1,1.1,0.2,1.6,0.3c0-0.2,0-0.3,0-0.4
	C61.5,21.7,61,20.5,60.5,19.4c-0.102-0.198-0.2-0.3-0.3-0.5C59,17.1,57.3,15.8,55.6,14.7C54.4,14,53.1,13.4,51.8,13
	c-2.2-0.8-4.4-0.8-6.7-0.5C45,12.5,44.9,12.6,44.7,12.7z"/>
</svg>
