<?xml version="1.0" encoding="utf-8"?>
<!-- Generator: Adobe Illustrator 15.1.0, SVG Export Plug-In . SVG Version: 6.00 Build 0)  -->
<!DOCTYPE svg PUBLIC "-//W3C//DTD SVG 1.1//EN" "http://www.w3.org/Graphics/SVG/1.1/DTD/svg11.dtd">
<svg version="1.1" id="Layer_1" xmlns="http://www.w3.org/2000/svg" xmlns:xlink="http://www.w3.org/1999/xlink" x="0px" y="0px"
	 width="81.6px" height="26.1px" viewBox="0 0 81.6 26.1" enable-background="new 0 0 81.6 26.1" xml:space="preserve">
<path fill="#50C0A7" d="M38,7.2C37.9,6.6,37.7,6.3,37.2,6c-1.5-0.8-3-1.3-4.5-1.8C30.9,3.6,29,3.4,27.1,3.6C25,3.8,22.9,4.3,20.8,5
	c-0.3,0.1-0.7,0.3-1.1,0.3c-0.5,0.1-1,0.3-1.5,0.5C15.1,7.3,12,9,9.1,11c-0.898,0.6-1.8,1.1-2.7,1.7C5.8,13.1,5.2,13.6,4.8,14.3
	c-0.2,0.5-0.6,0.8-1,1.2c-0.2-0.3-0.6-0.4-0.9-0.4c-1.3-0.2-2.198-1-3-1.898C0.2,12.1,0.8,11.2,1.5,10.5C2,10.1,2.5,9.7,3,9.3
	C3.4,9,3.9,8.6,4.3,8.3c0.5-0.3,0.9-0.8,1.5-1s0.8-0.7,1.3-0.9C7.5,6.2,7.8,5.9,8.3,5.8c0.2,0,0.3-0.1,0.5-0.2
	c0.6-0.5,1.3-0.8,2-1.2c1-0.6,2-1.198,3.1-1.698c1-0.5,2.102-1,3.2-1.302C18.7,0.9,20.4,0.4,22.2,0.2C24.1-0.1,26-0.1,27.8,0.2
	C30,0.6,32.1,1.5,34.2,2.5C36,3.3,37.5,4.6,38.9,5.8C39.6,6.4,40.2,7,40.8,7.7C41.6,8.6,42.3,9.6,42.3,10.9c0,0.2,0.1,0.4,0.1,0.7
	c0.102,0.3,0.2,0.5,0.4,0.602c0.6,0.398,1.3,0.698,1.9,1.1c1.6,0.9,3.198,1.8,4.8,2.8c1.398,0.8,2.7,1.8,4,2.7
	c1.2,0.8,2.398,1.4,3.7,1.9C59.1,21.4,61.1,22,63.1,22.4c0.5,0.102,1.102,0.2,1.602,0.2c1.198,0.102,2.398,0.2,3.5,0.2
	c0.6,0,1.198-0.2,1.8-0.3c1.3-0.3,2.6-0.8,3.8-1.3c1.4-0.602,2.4-1.5,3.1-2.9c1-1.9,1.5-3.8,1.602-5.9c0-0.6-0.102-1.198-0.3-1.8
	c-0.302-0.1-0.7-0.1-1.102-0.2c-1.1,0-2.2,0.2-3.3,0.602c-0.5,0.2-1,0.398-1.3,0.8c-0.8,0.7-1.3,1.5-1.3,2.6
	c0.5,0.5,0.898,1,1.398,1.4c0.4,0.5,1,0.9,1.2,1.6c-0.3,0.2-0.6,0.302-0.9,0.4c-0.3-0.1-0.5-0.2-0.698-0.4c-1.5-1.198-3-2.5-4.2-4.1
	c-0.2-0.3-0.5-0.7-0.602-1c-0.3-0.8-0.5-1.7-0.1-2.6C68,8.4,68.9,7.5,70.2,7c1.5-0.5,3-0.7,4.6-0.602C75.4,6.4,76,6.6,76.5,7
	C77,7.3,77.4,7.7,77.9,8.1c1,0.9,1.802,2,2.7,3.102c1,1.198,1.4,2.5,0.9,4.1c-0.4,1.4-0.9,2.8-1.3,4.2c-0.5,1.6-1.602,2.6-2.9,3.5
	c-0.2,0.2-0.5,0.398-0.8,0.398C75.6,23.5,74.9,24,74.1,24.3c-0.7,0.3-1.398,0.7-2.2,0.8c-1.8,0.4-3.6,0.602-5.398,0.4
	C64.4,25.2,62.4,24.6,60.4,24c-0.698-0.2-1.5-0.5-2.198-0.8c-1-0.5-2-1-2.9-1.602c-1.3-0.7-2.4-1.5-3.7-2.3
	c-0.398-0.3-0.8-0.6-1.3-0.9c-1.9-1.1-3.8-2.1-5.7-3.1c-0.8-0.4-1.6-0.9-2.398-1.2C42.1,14.2,42,14.2,42,14.3
	c-0.2,1-0.8,1.7-1.4,2.5C39.7,17.9,39,19.1,37.7,19.7c-0.102,0-0.102,0.1-0.2,0.1C36.7,20.4,35.9,21,35,21.5
	C34.2,22,33.4,22.4,32.6,22.8c-2.3,1.1-4.5,2.2-7.1,2.6c-0.3,0-0.5,0.102-0.7,0.2C23.2,26.2,21.6,26.2,20,25.7
	C19.8,25.6,19.6,25.6,19.4,25.4c-0.8-0.5-1.5-1-2.3-1.5c-0.898-0.6-1.2-1.5-1.2-2.5c0-0.8,0.2-1.698,0.302-2.5
	c0.1-0.398,0.1-0.8,0.3-1c0.3-0.3,0.2-0.698,0.398-1c0-0.698,0.4-1.3,0.9-1.898c0.5-0.7,1.2-1.4,1.8-2c1.3-1.2,2.7-2,4.3-2.8
	C24.5,9.9,25.2,9.6,25.9,9.4C26.6,9.1,27.3,9,28,8.8s1.5-0.1,2.2-0.2c0.5-0.1,1.1,0,1.698,0.102c1.7,0.1,3.4,0.3,5,0.8
	C37.2,9.6,37.5,9.6,37.8,9.7C38.1,8.8,38,8,38,7.2z M36.5,12.5c-2.3-0.4-4.5-0.3-6.7,0.5c-1.3,0.5-2.6,1-3.8,1.7
	C24.2,15.8,22.6,17.1,21.4,18.9c-0.1,0.2-0.198,0.302-0.3,0.5c-0.5,1.2-1,2.302-1.3,3.5c0,0.102,0,0.2,0,0.4
	c0.6-0.1,1.1-0.2,1.6-0.3c2.4-0.7,4.802-1.602,7-2.7c1.602-0.8,3.2-1.7,4.5-3c0.5-0.5,1-0.8,1.5-1.3c1-0.9,1.802-2,2.5-3.3
	C36.7,12.6,36.6,12.5,36.5,12.5z"/>
</svg>
